# xmcd
#
# Track frame offsets:
# 150
# 22635
# 38472
# 55577
# 68137
# 70140
# 92227
# 100810
# 117612
# 122192
# 133772
# 136245
# 154190
# 172467
# 179710
# 192262
# 195462
# 214662
# 231409
#
# Disc length: 3322 seconds
#
#
# Revision: 0
# Processed by: cddbd v1.5.1PL0 Copyright (c) Steve Scherf et al.
# Submitted via: FreeRIP 2.942 
#
DISCID=160cf813
DTITLE=Pete Miser - What it Be...
DYEAR=1996
DGENRE=Hip-Hop
TTITLE0=Intro/Medusa Ft X-Kid
TTITLE1=Grand Tradition
TTITLE2=What it be FT. Guaran-T
TTITLE3=All in my head
TTITLE4=Capucino Loc Freestyle
TTITLE5=Place of Mind Ft. Dj Chill
TTITLE6=N.E. Piece
TTITLE7=On the Rhyme Ft. DJ Pete Miser
TTITLE8=Pete's Got Beats I
TTITLE9=One tall Glass of wine
TTITLE10=Credits
TTITLE11=What you sew
TTITLE12=Here I be
TTITLE13=Petes got beats II
TTITLE14=Deep in time
TTITLE15=Ditto Ft Sister nancy and Tinny Fnurnk
TTITLE16=Notify
TTITLE17=What's your Function Ft. Cool Nutz
TTITLE18=Outro
EXTD=
EXTT0=
EXTT1=
EXTT2=
EXTT3=
EXTT4=
EXTT5=
EXTT6=
EXTT7=
EXTT8=
EXTT9=
EXTT10=
EXTT11=
EXTT12=
EXTT13=
EXTT14=
EXTT15=
EXTT16=
EXTT17=
EXTT18=
PLAYORDER=
